<?xml version="1.0" ?><svg id="Layer_1" style="enable-background:new 0 0 2048 2048;" version="1.1" viewBox="0 0 2048 2048" xml:space="preserve" xmlns="http://www.w3.org/2000/svg" xmlns:xlink="http://www.w3.org/1999/xlink"><style type="text/css">
	.st0{fill:#D3D3D3;}
	.st1{fill:#EDEBED;}
	.st2{fill:#FFE17D;}
	.st3{fill:#FF8587;}
</style><g id="XMLID_2_"><g id="XMLID_1_"><polygon class="st0" points="1397.4,317.5 1541.3,468.5 1397.4,468.5   "/><path d="M1600,790.4v984c0,9.7-7.9,17.6-17.6,17.6H465.6c-9.7,0-17.6-7.9-17.6-17.6V273.6c0-9.7,7.9-17.6,17.6-17.6h914.2    c-2.2,0-4.4,0.4-6.5,1.3c-6.7,2.7-11.1,9.1-11.1,16.3v17.6H483.2v1465.6h1081.6V790.4c0-47.9,0-166.4-0.1-286.7h17.7    c7,0,13.4-4.2,16.2-10.7c0.7-1.7,1.2-3.4,1.3-5.2V503C1600,623.6,1600,742.5,1600,790.4z"/><path d="M1595.1,474c3.6,3.8,5.3,8.9,4.8,13.9v-1.7c0-4.9-2-9.3-5.1-12.4c-3.2-3.2-7.6-5.1-12.4-5.1c-9.7,0-17.6,7.9-17.6,17.6    V503c0,0.2,0,0.4,0,0.6h-184.9c-9.7,0-17.6-7.9-17.6-17.6V291.2h17.6c9.7,0,17.6-7.9,17.6-17.6c0-4.5-1.7-8.6-4.4-11.7L1595.1,474    z M1541.3,468.5l-143.9-151v151H1541.3z"/><path d="M1599.9,486.1v1.7c-0.2,1.8-0.6,3.5-1.3,5.2c-2.8,6.5-9.1,10.7-16.2,10.7h-17.7c0-0.2,0-0.4,0-0.6v-16.9    c0-9.7,7.9-17.6,17.6-17.6c4.9,0,9.3,2,12.4,5.1C1597.9,476.8,1599.9,481.2,1599.9,486.1z"/><path class="st1" d="M1564.8,790.4v966.4H483.2V291.2h879.1v194.9c0,9.7,7.9,17.6,17.6,17.6h184.9    C1564.8,624,1564.8,742.6,1564.8,790.4z M1434.4,672.4c0-9.7-7.9-17.6-17.6-17.6H887.7c-9.7,0-17.6,7.9-17.6,17.6    c0,9.7,7.9,17.6,17.6,17.6h529.1C1426.5,690,1434.4,682.1,1434.4,672.4z M1434.4,750.1c0-9.7-7.9-17.6-17.6-17.6H887.7    c-9.7,0-17.6,7.9-17.6,17.6c0,9.7,7.9,17.6,17.6,17.6h529.1C1426.5,767.7,1434.4,759.8,1434.4,750.1z M1434.4,958.2    c0-9.7-7.9-17.6-17.6-17.6H887.7c-9.7,0-17.6,7.9-17.6,17.6c0,9.7,7.9,17.6,17.6,17.6h529.1    C1426.5,975.8,1434.4,967.9,1434.4,958.2z M1434.4,1035.9c0-9.7-7.9-17.6-17.6-17.6H887.7c-9.7,0-17.6,7.9-17.6,17.6    c0,9.7,7.9,17.6,17.6,17.6h529.1C1426.5,1053.5,1434.4,1045.6,1434.4,1035.9z M1434.4,1244c0-9.7-7.9-17.6-17.6-17.6H887.7    c-9.7,0-17.6,7.9-17.6,17.6c0,9.7,7.9,17.6,17.6,17.6h529.1C1426.5,1261.6,1434.4,1253.7,1434.4,1244z M1434.4,1321.7    c0-9.7-7.9-17.6-17.6-17.6H887.7c-9.7,0-17.6,7.9-17.6,17.6c0,9.7,7.9,17.6,17.6,17.6h529.1    C1426.5,1339.3,1434.4,1331.4,1434.4,1321.7z M1432.2,1571.9c0-14.8-5.8-28.8-16.3-39.4c-10.5-10.6-24.5-16.4-39.3-16.4h-13.2    v-1.5c0-4.7-1.8-9.1-5.1-12.4s-7.8-5.2-12.4-5.2l-98.2,0l-436.8-0.1c-0.3,0-0.7,0-1,0c-0.3,0-0.7,0-1,0.1c-0.3,0-0.5,0.1-0.8,0.1    c-0.2,0-0.5,0.1-0.7,0.1c-0.2,0-0.3,0.1-0.5,0.1l-127.5,29.3c-8,1.8-13.7,8.9-13.7,17.1v10.3l-32.2,0c-9.7,0-17.6,7.9-17.6,17.6    c0,9.7,7.9,17.6,17.6,17.6l32.2,0v10.3c0,8.2,5.7,15.3,13.6,17.1l127.5,29.3c0.1,0,0.1,0,0.2,0c0.2,0.1,0.5,0.1,0.7,0.1    c0.4,0.1,0.7,0.1,1.1,0.2c0.1,0,0.3,0,0.4,0c0.1,0,0.3,0,0.4,0c0.4,0,0.8,0,1.2,0l436.6,0.1c0,0,0.1,0,0.1,0s0.1,0,0.1,0l98.1,0    c9.7,0,17.6-7.9,17.6-17.6v-1.5h13.2c0,0,0,0,0,0c14.8,0,28.8-5.8,39.3-16.3C1426.4,1600.7,1432.2,1586.7,1432.2,1571.9z     M1235.8,496.7c0-9.7-7.9-17.6-17.6-17.6H829.8c-9.7,0-17.6,7.9-17.6,17.6c0,9.7,7.9,17.6,17.6,17.6h388.4    C1227.9,514.3,1235.8,506.4,1235.8,496.7z M1178.6,419c0-9.7-7.9-17.6-17.6-17.6H887c-9.7,0-17.6,7.9-17.6,17.6    c0,9.7,7.9,17.6,17.6,17.6H1161C1170.8,436.6,1178.6,428.7,1178.6,419z M789.5,1353.2v-140.7c0-9.7-7.9-17.6-17.6-17.6H631.2    c-9.7,0-17.6,7.9-17.6,17.6v140.7c0,9.7,7.9,17.6,17.6,17.6h140.7C781.6,1370.8,789.5,1362.9,789.5,1353.2z M789.5,1067.4V926.7    c0-9.7-7.9-17.6-17.6-17.6H631.2c-9.7,0-17.6,7.9-17.6,17.6v140.7c0,9.7,7.9,17.6,17.6,17.6h140.7    C781.6,1085,789.5,1077.1,789.5,1067.4z M789.5,781.6V640.9c0-9.7-7.9-17.6-17.6-17.6H631.2c-9.7,0-17.6,7.9-17.6,17.6v140.7    c0,9.7,7.9,17.6,17.6,17.6h140.7C781.6,799.2,789.5,791.3,789.5,781.6z"/><path d="M1416.8,654.8c9.7,0,17.6,7.9,17.6,17.6c0,9.7-7.9,17.6-17.6,17.6H887.7c-9.7,0-17.6-7.9-17.6-17.6    c0-9.7,7.9-17.6,17.6-17.6H1416.8z"/><path d="M1416.8,732.5c9.7,0,17.6,7.9,17.6,17.6c0,9.7-7.9,17.6-17.6,17.6H887.7c-9.7,0-17.6-7.9-17.6-17.6    c0-9.7,7.9-17.6,17.6-17.6H1416.8z"/><path d="M1416.8,940.6c9.7,0,17.6,7.9,17.6,17.6c0,9.7-7.9,17.6-17.6,17.6H887.7c-9.7,0-17.6-7.9-17.6-17.6    c0-9.7,7.9-17.6,17.6-17.6H1416.8z"/><path d="M1416.8,1018.3c9.7,0,17.6,7.9,17.6,17.6c0,9.7-7.9,17.6-17.6,17.6H887.7c-9.7,0-17.6-7.9-17.6-17.6    c0-9.7,7.9-17.6,17.6-17.6H1416.8z"/><path d="M1416.8,1226.4c9.7,0,17.6,7.9,17.6,17.6c0,9.7-7.9,17.6-17.6,17.6H887.7c-9.7,0-17.6-7.9-17.6-17.6    c0-9.7,7.9-17.6,17.6-17.6H1416.8z"/><path d="M1416.8,1304.1c9.7,0,17.6,7.9,17.6,17.6c0,9.7-7.9,17.6-17.6,17.6H887.7c-9.7,0-17.6-7.9-17.6-17.6    c0-9.7,7.9-17.6,17.6-17.6H1416.8z"/><path d="M1415.8,1532.5c10.5,10.5,16.3,24.5,16.3,39.4c0,14.8-5.8,28.8-16.4,39.4c-10.5,10.5-24.5,16.3-39.3,16.3c0,0,0,0,0,0    h-13.2l0-35.2h13.2c2.7,0,5.4-0.5,7.8-1.6c2.4-1,4.7-2.5,6.6-4.5c3.9-3.9,6.1-9,6.1-14.5c0-5.4-2.1-10.6-6-14.5    c-3.9-3.9-9-6-14.5-6h-13.2l0-35.2h13.2C1391.3,1516.2,1405.3,1522,1415.8,1532.5z"/><path d="M1393,261.9c2.8,3.1,4.4,7.2,4.4,11.7c0,9.7-7.9,17.6-17.6,17.6h-17.6v-17.6c0-7.2,4.4-13.7,11.1-16.3    c2.1-0.9,4.3-1.3,6.5-1.3c0.9,0,1.8,0.1,2.6,0.2c0.9,0.1,1.7,0.3,2.6,0.6c0.3,0.1,0.6,0.2,0.8,0.3c0.6,0.2,1.1,0.4,1.6,0.7    c0.3,0.1,0.5,0.3,0.8,0.4c0.3,0.1,0.5,0.3,0.8,0.4s0.5,0.3,0.7,0.5c0.2,0.2,0.5,0.3,0.7,0.5c0.5,0.4,0.9,0.7,1.4,1.2    c0.2,0.2,0.4,0.4,0.6,0.6C1392.7,261.6,1392.8,261.8,1393,261.9z"/><path class="st2" d="M1391,1557.4c3.9,3.9,6,9,6,14.5c0,5.4-2.1,10.6-6.1,14.5c-1.9,1.9-4.2,3.5-6.6,4.5c-2.4,1-5.1,1.6-7.8,1.6    h-13.2v-41h13.2C1381.9,1551.3,1387.1,1553.5,1391,1557.4z"/><path d="M1392.5,261.5c-0.2-0.2-0.4-0.4-0.6-0.6C1392.1,261,1392.3,261.2,1392.5,261.5z"/><path d="M1389.8,259.1c-0.2-0.2-0.5-0.3-0.7-0.5C1389.3,258.8,1389.5,258.9,1389.8,259.1z"/><path d="M1388.3,258.2c-0.2-0.1-0.5-0.3-0.8-0.4C1387.7,257.9,1388,258,1388.3,258.2z"/><path d="M1385,256.8c-0.9-0.3-1.7-0.5-2.6-0.6C1383.3,256.3,1384.2,256.5,1385,256.8z"/><path d="M1363.3,1514.7v1.5l-17.6,0c0,0,0,0,0,0c-9.6,0-17.3,7.7-17.6,17.1v-1l-63,0v-17.6c0-4.9-2-9.2-5.1-12.4    c-3.2-3.2-7.6-5.2-12.4-5.2l98.2,0c4.7,0,9.1,1.9,12.4,5.2S1363.3,1510,1363.3,1514.7z"/><path d="M1363.3,1516.2l0,35.2l-17.6,0c-9.6,0-17.4-7.6-17.6-17.1v-0.9c0.2-9.5,8-17.1,17.6-17.1c0,0,0,0,0,0L1363.3,1516.2z"/><path d="M1363.3,1551.3v41l-17.6,0c-9.7,0-17.6,7.9-17.6,17.6c0,9.7,7.9,17.6,17.6,17.6l17.6,0v1.5c0,9.7-7.9,17.6-17.6,17.6    l-98.1,0c9.7-0.1,17.5-7.9,17.5-17.6v-17.6l63,0l0-77.2c0.2,9.5,8,17.1,17.6,17.1L1363.3,1551.3z"/><path d="M1363.3,1592.4l0,35.2l-17.6,0c-9.7,0-17.6-7.9-17.6-17.6c0-9.7,7.9-17.6,17.6-17.6L1363.3,1592.4z"/><path d="M1328.1,1533.3v0.9c0-0.1,0-0.3,0-0.4C1328.1,1533.6,1328.1,1533.4,1328.1,1533.3z"/><path class="st2" d="M1328.1,1532.3v1c0,0.1,0,0.3,0,0.4c0,0.1,0,0.3,0,0.4l0,77.2l-63,0l0-79.1L1328.1,1532.3z"/><path d="M1265.1,1514.7v17.6h-35.2v-17.6c0-9.7,7.9-17.6,17.6-17.6c4.9,0,9.2,2,12.4,5.2    C1263.1,1505.4,1265.1,1509.8,1265.1,1514.7z"/><rect height="79.1" width="35.2" x="1229.9" y="1532.3"/><path d="M1265.1,1611.4v17.6c0,9.7-7.8,17.5-17.5,17.6c0,0-0.1,0-0.1,0s-0.1,0-0.1,0c-9.7-0.1-17.5-7.9-17.5-17.6v-17.6H1265.1z"/><path d="M810.8,1497l436.8,0.1c-9.7,0-17.6,7.9-17.6,17.6v17.6l-401.6-0.1v-17.6c0-5.4-2.4-10.4-6.6-13.8    C818.6,1498.3,814.7,1497,810.8,1497z"/><path d="M1247.4,1646.6l-436.6-0.1c3.9,0,7.8-1.3,11-3.8c4.2-3.3,6.6-8.4,6.6-13.7l0-57.2v39.6l401.6,0.1v17.6    C1229.9,1638.7,1237.7,1646.5,1247.4,1646.6z"/><path d="M1218.2,479.1c9.7,0,17.6,7.9,17.6,17.6c0,9.7-7.9,17.6-17.6,17.6H829.8c-9.7,0-17.6-7.9-17.6-17.6    c0-9.7,7.9-17.6,17.6-17.6H1218.2z"/><polygon class="st2" points="1229.9,1532.3 1229.9,1611.4 828.3,1611.3 828.3,1571.8 828.4,1532.2   "/><path d="M1161,401.4c9.7,0,17.6,7.9,17.6,17.6c0,9.7-7.9,17.6-17.6,17.6H887c-9.7,0-17.6-7.9-17.6-17.6c0-9.7,7.9-17.6,17.6-17.6    H1161z"/><path d="M828.4,1514.6v17.6h0v39.6l0,57.2c0,5.3-2.4,10.4-6.6,13.7c-3.2,2.5-7,3.8-11,3.8c-0.4,0-0.8,0-1.2,0c-0.1,0-0.3,0-0.4,0    c-0.1,0-0.3,0-0.4,0c-0.4,0-0.7-0.1-1.1-0.2c-0.2,0-0.5-0.1-0.7-0.1c-0.1,0-0.1,0-0.2,0c-7.8-1.8-13.6-8.8-13.6-17.1v-22.1h0    v-35.1l0-57.2c0-4.7,1.8-9.1,5.1-12.4c2.5-2.5,5.6-4.1,9-4.8c0.2-0.1,0.5-0.1,0.7-0.1c0.3,0,0.5-0.1,0.8-0.1c0.3,0,0.7-0.1,1-0.1    c0.3,0,0.6,0,1,0c3.9,0,7.8,1.3,10.9,3.8C825.9,1504.2,828.4,1509.2,828.4,1514.6z"/><polygon points="828.4,1532.2 828.3,1571.8 828.3,1532.2   "/><path d="M806.8,1497.4c0.2,0,0.3-0.1,0.5-0.1c-3.4,0.7-6.5,2.3-9,4.8c-3.3,3.3-5.1,7.8-5.1,12.4l0,57.2v-35.1l-92.3,21.2v13.9    c0-9.7-7.9-17.6-17.6-17.6h-17.6v-10.3c0-8.2,5.7-15.3,13.7-17.1L806.8,1497.4z"/><path d="M806.8,1646.1l-127.5-29.3c-8-1.8-13.6-8.9-13.6-17.1v-10.3h17.6c9.7,0,17.6-7.9,17.6-17.6v13.9l92.3,21.2v22.1    C793.1,1637.3,799,1644.3,806.8,1646.1z"/><polygon points="793.2,1571.7 793.2,1606.8 793.1,1606.8   "/><polygon class="st2" points="793.2,1536.7 793.2,1571.7 793.1,1606.8 700.8,1585.6 700.8,1571.7 700.8,1557.9   "/><path d="M789.5,1212.5v140.7c0,9.7-7.9,17.6-17.6,17.6H631.2c-9.7,0-17.6-7.9-17.6-17.6v-140.7c0-9.7,7.9-17.6,17.6-17.6h140.7    C781.6,1194.9,789.5,1202.8,789.5,1212.5z M754.3,1335.6v-105.5H648.8v105.5H754.3z"/><path d="M789.5,926.7v140.7c0,9.7-7.9,17.6-17.6,17.6H631.2c-9.7,0-17.6-7.9-17.6-17.6V926.7c0-9.7,7.9-17.6,17.6-17.6h140.7    C781.6,909.1,789.5,917,789.5,926.7z M754.3,1049.8V944.3H648.8v105.5H754.3z"/><path d="M789.5,640.9v140.7c0,9.7-7.9,17.6-17.6,17.6H631.2c-9.7,0-17.6-7.9-17.6-17.6V640.9c0-9.7,7.9-17.6,17.6-17.6h140.7    C781.6,623.3,789.5,631.2,789.5,640.9z M754.3,764V658.5H648.8V764H754.3z"/><rect class="st3" height="105.5" width="105.5" x="648.8" y="1230.1"/><rect class="st3" height="105.5" width="105.5" x="648.8" y="944.3"/><rect class="st3" height="105.5" width="105.5" x="648.8" y="658.5"/><path d="M683.2,1554.1c9.7,0,17.6,7.9,17.6,17.6s-7.9,17.6-17.6,17.6h-17.6v-35.2H683.2z"/><path d="M665.6,1554.1v35.2l-32.2,0c-9.7,0-17.6-7.9-17.6-17.6c0-9.7,7.9-17.6,17.6-17.6L665.6,1554.1z"/></g></g></svg>